<svg xmlns="http://www.w3.org/2000/svg" xmlns:xlink="http://www.w3.org/1999/xlink" contentStyleType="text/css" data-diagram-type="CLASS" height="629px" preserveAspectRatio="none" style="width:574px;height:629px;background:#FFFFFF;" version="1.1" viewBox="0 0 574 629" width="574px" zoomAndPan="magnify"><?plantuml 1.2026.3beta4?><defs/><g><!--class Person--><g class="entity" data-qualified-name="Person" data-source-line="1" id="ent0002"><rect fill="#F1F1F1" height="80.5938" rx="2.5" ry="2.5" style="stroke:#181818;stroke-width:0.5;" width="170.4023" x="28.455" y="526.2"/><ellipse cx="85.6342" cy="542.2" fill="#ADD1B2" rx="11" ry="11" style="stroke:#181818;stroke-width:1;"/><path d="M88.6029,547.8406 Q88.0248,548.1375 87.3842,548.2781 Q86.7435,548.4344 86.0404,548.4344 Q83.5404,548.4344 82.2123,546.7938 Q80.8998,545.1375 80.8998,542.0125 Q80.8998,538.8875 82.2123,537.2313 Q83.5404,535.575 86.0404,535.575 Q86.7435,535.575 87.3842,535.7313 Q88.0404,535.8875 88.6029,536.1844 L88.6029,538.9031 Q87.9779,538.325 87.3842,538.0594 Q86.7904,537.7781 86.1654,537.7781 Q84.8217,537.7781 84.1342,538.8563 Q83.4467,539.9188 83.4467,542.0125 Q83.4467,544.1063 84.1342,545.1844 Q84.8217,546.2469 86.1654,546.2469 Q86.7904,546.2469 87.3842,545.9813 Q87.9779,545.7 88.6029,545.1219 L88.6029,547.8406 Z " fill="#000000"/><text fill="#000000" font-family="sans-serif" font-size="14" lengthAdjust="spacing" textLength="47.5439" x="106.1342" y="547.0467">Person</text><line style="stroke:#181818;stroke-width:0.5;" x1="29.455" x2="197.8573" y1="558.2" y2="558.2"/><g data-visibility-modifier="PUBLIC_FIELD"><ellipse cx="39.455" cy="571.8484" fill="none" rx="3" ry="3" style="stroke:#038048;stroke-width:1;"/></g><text fill="#000000" font-family="sans-serif" font-size="14" lengthAdjust="spacing" textLength="85.9346" x="48.455" y="575.1951">String name</text><line style="stroke:#181818;stroke-width:0.5;" x1="29.455" x2="197.8573" y1="582.4969" y2="582.4969"/><g data-visibility-modifier="PUBLIC_METHOD"><ellipse cx="39.455" cy="596.1453" fill="#84BE84" rx="3" ry="3" style="stroke:#038048;stroke-width:1;"/></g><text fill="#000000" font-family="sans-serif" font-size="14" lengthAdjust="spacing" textLength="144.4023" x="48.455" y="599.492">Person(String name)</text></g><!--class Course--><g class="entity" data-qualified-name="Course" data-source-line="6" id="ent0003"><rect fill="#F1F1F1" height="96.8906" rx="2.5" ry="2.5" style="stroke:#181818;stroke-width:0.5;" width="242.6992" x="316.315" y="518.05"/><ellipse cx="408.9761" cy="534.05" fill="#ADD1B2" rx="11" ry="11" style="stroke:#181818;stroke-width:1;"/><path d="M411.9448,539.6906 Q411.3667,539.9875 410.7261,540.1281 Q410.0855,540.2844 409.3823,540.2844 Q406.8823,540.2844 405.5542,538.6438 Q404.2417,536.9875 404.2417,533.8625 Q404.2417,530.7375 405.5542,529.0813 Q406.8823,527.425 409.3823,527.425 Q410.0855,527.425 410.7261,527.5813 Q411.3823,527.7375 411.9448,528.0344 L411.9448,530.7531 Q411.3198,530.175 410.7261,529.9094 Q410.1323,529.6281 409.5073,529.6281 Q408.1636,529.6281 407.4761,530.7063 Q406.7886,531.7688 406.7886,533.8625 Q406.7886,535.9563 407.4761,537.0344 Q408.1636,538.0969 409.5073,538.0969 Q410.1323,538.0969 410.7261,537.8313 Q411.3198,537.55 411.9448,536.9719 L411.9448,539.6906 Z " fill="#000000"/><text fill="#000000" font-family="sans-serif" font-size="14" lengthAdjust="spacing" textLength="48.877" x="429.4761" y="538.8967">Course</text><line style="stroke:#181818;stroke-width:0.5;" x1="317.315" x2="558.0142" y1="550.05" y2="550.05"/><g data-visibility-modifier="PUBLIC_FIELD"><ellipse cx="327.315" cy="563.6984" fill="none" rx="3" ry="3" style="stroke:#038048;stroke-width:1;"/></g><text fill="#000000" font-family="sans-serif" font-size="14" lengthAdjust="spacing" textLength="80.0898" x="336.315" y="567.0451">String label</text><g data-visibility-modifier="PUBLIC_FIELD"><ellipse cx="327.315" cy="579.9953" fill="none" rx="3" ry="3" style="stroke:#038048;stroke-width:1;"/></g><text fill="#000000" font-family="sans-serif" font-size="14" lengthAdjust="spacing" textLength="74.5664" x="336.315" y="583.342">int volume</text><line style="stroke:#181818;stroke-width:0.5;" x1="317.315" x2="558.0142" y1="590.6438" y2="590.6438"/><g data-visibility-modifier="PUBLIC_METHOD"><ellipse cx="327.315" cy="604.2922" fill="#84BE84" rx="3" ry="3" style="stroke:#038048;stroke-width:1;"/></g><text fill="#000000" font-family="sans-serif" font-size="14" lengthAdjust="spacing" textLength="216.6992" x="336.315" y="607.6389">Course(String name, int hours)</text></g><!--class Enrollment--><g class="entity" data-qualified-name="Enrollment" data-source-line="12" id="ent0004"><rect fill="#F1F1F1" height="113.1875" rx="2.5" ry="2.5" style="stroke:#181818;stroke-width:0.5;" width="242.5693" x="166.375" y="343.86"/><ellipse cx="245.1933" cy="359.86" fill="#ADD1B2" rx="11" ry="11" style="stroke:#181818;stroke-width:1;"/><path d="M248.1621,365.5006 Q247.584,365.7975 246.9433,365.9381 Q246.3027,366.0944 245.5996,366.0944 Q243.0996,366.0944 241.7715,364.4538 Q240.459,362.7975 240.459,359.6725 Q240.459,356.5475 241.7715,354.8913 Q243.0996,353.235 245.5996,353.235 Q246.3027,353.235 246.9433,353.3913 Q247.5996,353.5475 248.1621,353.8444 L248.1621,356.5631 Q247.5371,355.985 246.9433,355.7194 Q246.3496,355.4381 245.7246,355.4381 Q244.3808,355.4381 243.6933,356.5163 Q243.0058,357.5788 243.0058,359.6725 Q243.0058,361.7663 243.6933,362.8444 Q244.3808,363.9069 245.7246,363.9069 Q246.3496,363.9069 246.9433,363.6413 Q247.5371,363.36 248.1621,362.7819 L248.1621,365.5006 Z " fill="#000000"/><text fill="#000000" font-family="sans-serif" font-size="14" lengthAdjust="spacing" textLength="76.4326" x="265.6933" y="364.7067">Enrollment</text><line style="stroke:#181818;stroke-width:0.5;" x1="167.375" x2="407.9443" y1="375.86" y2="375.86"/><g data-visibility-modifier="PUBLIC_FIELD"><ellipse cx="177.375" cy="389.5084" fill="none" rx="3" ry="3" style="stroke:#038048;stroke-width:1;"/></g><text fill="#000000" font-family="sans-serif" font-size="14" lengthAdjust="spacing" textLength="132.9795" x="186.375" y="392.8551">Integer mark [0..1]</text><line style="stroke:#181818;stroke-width:0.5;" x1="167.375" x2="407.9443" y1="400.1569" y2="400.1569"/><g data-visibility-modifier="PUBLIC_METHOD"><ellipse cx="177.375" cy="413.8053" fill="#84BE84" rx="3" ry="3" style="stroke:#038048;stroke-width:1;"/></g><text fill="#000000" font-family="sans-serif" font-size="14" lengthAdjust="spacing" textLength="216.5693" x="186.375" y="417.152">Enrollment(Person s, Course c)</text><g data-visibility-modifier="PUBLIC_METHOD"><ellipse cx="177.375" cy="430.1022" fill="#84BE84" rx="3" ry="3" style="stroke:#038048;stroke-width:1;"/></g><text fill="#000000" font-family="sans-serif" font-size="14" lengthAdjust="spacing" textLength="164.418" x="186.375" y="433.4489">setMark(int mark): void</text><g data-visibility-modifier="PUBLIC_METHOD"><ellipse cx="177.375" cy="446.3991" fill="#84BE84" rx="3" ry="3" style="stroke:#038048;stroke-width:1;"/></g><text fill="#000000" font-family="sans-serif" font-size="14" lengthAdjust="spacing" textLength="190.5039" x="186.375" y="449.7457">studentHasMark(): boolean</text></g><!--class Platform--><g class="entity" data-qualified-name="Platform" data-source-line="19" id="ent0005"><rect fill="#F1F1F1" height="259.8594" rx="2.5" ry="2.5" style="stroke:#181818;stroke-width:0.5;" width="328.5313" x="123.395" y="7"/><ellipse cx="253.7665" cy="23" fill="#ADD1B2" rx="11" ry="11" style="stroke:#181818;stroke-width:1;"/><path d="M256.7353,28.6406 Q256.1572,28.9375 255.5165,29.0781 Q254.8759,29.2344 254.1728,29.2344 Q251.6728,29.2344 250.3447,27.5938 Q249.0322,25.9375 249.0322,22.8125 Q249.0322,19.6875 250.3447,18.0313 Q251.6728,16.375 254.1728,16.375 Q254.8759,16.375 255.5165,16.5313 Q256.1728,16.6875 256.7353,16.9844 L256.7353,19.7031 Q256.1103,19.125 255.5165,18.8594 Q254.9228,18.5781 254.2978,18.5781 Q252.954,18.5781 252.2665,19.6563 Q251.579,20.7188 251.579,22.8125 Q251.579,24.9063 252.2665,25.9844 Q252.954,27.0469 254.2978,27.0469 Q254.9228,27.0469 255.5165,26.7813 Q256.1103,26.5 256.7353,25.9219 L256.7353,28.6406 Z " fill="#000000"/><text fill="#000000" font-family="sans-serif" font-size="14" lengthAdjust="spacing" textLength="59.2881" x="274.2665" y="27.8467">Platform</text><line style="stroke:#181818;stroke-width:0.5;" x1="124.395" x2="450.9262" y1="39" y2="39"/><line style="stroke:#181818;stroke-width:0.5;" x1="124.395" x2="450.9262" y1="47" y2="47"/><g data-visibility-modifier="PUBLIC_METHOD"><ellipse cx="134.395" cy="60.6484" fill="#84BE84" rx="3" ry="3" style="stroke:#038048;stroke-width:1;"/></g><text fill="#000000" font-family="sans-serif" font-size="14" lengthAdjust="spacing" textLength="70.2119" x="143.395" y="63.9951">Platform()</text><g data-visibility-modifier="PUBLIC_METHOD"><ellipse cx="134.395" cy="76.9453" fill="#84BE84" rx="3" ry="3" style="stroke:#038048;stroke-width:1;"/></g><text fill="#000000" font-family="sans-serif" font-size="14" lengthAdjust="spacing" textLength="185.9717" x="143.395" y="80.292">addCourse(Course c): void</text><g data-visibility-modifier="PUBLIC_METHOD"><ellipse cx="134.395" cy="93.2422" fill="#84BE84" rx="3" ry="3" style="stroke:#038048;stroke-width:1;"/></g><text fill="#000000" font-family="sans-serif" font-size="14" lengthAdjust="spacing" textLength="146.3711" x="143.395" y="96.5889">students(): Person[*]</text><g data-visibility-modifier="PUBLIC_METHOD"><ellipse cx="134.395" cy="109.5391" fill="#84BE84" rx="3" ry="3" style="stroke:#038048;stroke-width:1;"/></g><text fill="#000000" font-family="sans-serif" font-size="14" lengthAdjust="spacing" textLength="140.9844" x="143.395" y="112.8857">courses(): Course[*]</text><g data-visibility-modifier="PUBLIC_METHOD"><ellipse cx="134.395" cy="125.8359" fill="#84BE84" rx="3" ry="3" style="stroke:#038048;stroke-width:1;"/></g><text fill="#000000" font-family="sans-serif" font-size="14" lengthAdjust="spacing" textLength="197.9414" x="143.395" y="129.1826">enrollments(): Enrollment[*]</text><g data-visibility-modifier="PUBLIC_METHOD"><ellipse cx="134.395" cy="142.1328" fill="#84BE84" rx="3" ry="3" style="stroke:#038048;stroke-width:1;"/></g><text fill="#000000" font-family="sans-serif" font-size="14" lengthAdjust="spacing" textLength="218.415" x="143.395" y="145.4795">registerStudent(Person s): void</text><g data-visibility-modifier="PUBLIC_METHOD"><ellipse cx="134.395" cy="158.4297" fill="#84BE84" rx="3" ry="3" style="stroke:#038048;stroke-width:1;"/></g><text fill="#000000" font-family="sans-serif" font-size="14" lengthAdjust="spacing" textLength="218.5176" x="143.395" y="161.7764">enroll(Person s, Course c): void</text><g data-visibility-modifier="PUBLIC_METHOD"><ellipse cx="134.395" cy="174.7266" fill="#84BE84" rx="3" ry="3" style="stroke:#038048;stroke-width:1;"/></g><text fill="#000000" font-family="sans-serif" font-size="14" lengthAdjust="spacing" textLength="243.3047" x="143.395" y="178.0732">withdraw(Person s, Course c): void</text><g data-visibility-modifier="PUBLIC_METHOD"><ellipse cx="134.395" cy="191.0234" fill="#84BE84" rx="3" ry="3" style="stroke:#038048;stroke-width:1;"/></g><text fill="#000000" font-family="sans-serif" font-size="14" lengthAdjust="spacing" textLength="302.5313" x="143.395" y="194.3701">setMark(Person s, Course c, int mark): void</text><g data-visibility-modifier="PUBLIC_METHOD"><ellipse cx="134.395" cy="207.3203" fill="#84BE84" rx="3" ry="3" style="stroke:#038048;stroke-width:1;"/></g><text fill="#000000" font-family="sans-serif" font-size="14" lengthAdjust="spacing" textLength="225.0664" x="143.395" y="210.667">getMark(Person s, Course c): int</text><g data-visibility-modifier="PUBLIC_METHOD"><ellipse cx="134.395" cy="223.6172" fill="#84BE84" rx="3" ry="3" style="stroke:#038048;stroke-width:1;"/></g><text fill="#000000" font-family="sans-serif" font-size="14" lengthAdjust="spacing" textLength="278.6465" x="143.395" y="226.9639">studentsForCourse(Course c): Person[*]</text><g data-visibility-modifier="PUBLIC_METHOD"><ellipse cx="134.395" cy="239.9141" fill="#84BE84" rx="3" ry="3" style="stroke:#038048;stroke-width:1;"/></g><text fill="#000000" font-family="sans-serif" font-size="14" lengthAdjust="spacing" textLength="277.7578" x="143.395" y="243.2607">coursesForStudent(Person s): Course[*]</text><g data-visibility-modifier="PUBLIC_METHOD"><ellipse cx="134.395" cy="256.2109" fill="#84BE84" rx="3" ry="3" style="stroke:#038048;stroke-width:1;"/></g><text fill="#000000" font-family="sans-serif" font-size="14" lengthAdjust="spacing" textLength="187.9746" x="143.395" y="259.5576">emptyCourses(): Course[*]</text></g><!--link Enrollment to Person--><g class="link" data-entity-1="ent0004" data-entity-2="ent0002" data-link-type="dependency" data-source-line="35" id="lnk6"><path codeLine="35" d="M228.265,457.45 C204.445,479.91 181.9012,501.1647 160.1512,521.6647" fill="none" id="Enrollment-to-Person" style="stroke:#181818;stroke-width:1;"/><polygon fill="#181818" points="155.785,525.78,165.0779,522.5179,159.4235,522.3506,159.5908,516.6962,155.785,525.78" style="stroke:#181818;stroke-width:1;"/><text fill="#000000" font-family="sans-serif" font-size="13" lengthAdjust="spacing" textLength="62.0991" x="95.5665" y="515.1729">1 student</text></g><!--link Enrollment to Course--><g class="link" data-entity-1="ent0004" data-entity-2="ent0003" data-link-type="dependency" data-source-line="36" id="lnk7"><path codeLine="36" d="M338.865,457.45 C356.765,477.03 372.6456,494.4025 389.8856,513.2525" fill="none" id="Enrollment-to-Course" style="stroke:#181818;stroke-width:1;"/><polygon fill="#181818" points="393.935,517.68,390.8126,508.3392,390.5605,513.9904,384.9093,513.7383,393.935,517.68" style="stroke:#181818;stroke-width:1;"/><text fill="#000000" font-family="sans-serif" font-size="13" lengthAdjust="spacing" textLength="55.8594" x="328.9787" y="506.8369">1 course</text></g><!--link Platform to Enrollment--><g class="link" data-entity-1="ent0005" data-entity-2="ent0004" data-link-type="dependency" data-source-line="37" id="lnk8"><path codeLine="37" d="M287.665,267.16 C287.665,294.06 287.665,315.04 287.665,337.56" fill="none" id="Platform-to-Enrollment" style="stroke:#181818;stroke-width:1;"/><polygon fill="#181818" points="287.665,343.56,291.665,334.56,287.665,338.56,283.665,334.56,287.665,343.56" style="stroke:#181818;stroke-width:1;"/><text fill="#000000" font-family="sans-serif" font-size="13" lengthAdjust="spacing" textLength="59.8584" x="288.665" y="309.9269">manages</text><text fill="#000000" font-family="sans-serif" font-size="13" lengthAdjust="spacing" textLength="104.6982" x="177.3707" y="332.787">0..* enrollments</text></g><!--link Platform to Course--><g class="link" data-entity-1="ent0005" data-entity-2="ent0003" data-link-type="dependency" data-source-line="38" id="lnk9"><path codeLine="38" d="M390.045,267.21 C404.775,291.5 417.895,317.57 426.665,343.86 C445.845,401.43 445.9821,466.0632 442.9421,511.8932" fill="none" id="Platform-to-Course" style="stroke:#181818;stroke-width:1;"/><polygon fill="#181818" points="442.545,517.88,447.1319,509.1645,442.8759,512.891,439.1494,508.635,442.545,517.88" style="stroke:#181818;stroke-width:1;"/><text fill="#000000" font-family="sans-serif" font-size="13" lengthAdjust="spacing" textLength="37.2227" x="444.665" y="405.0269">offers</text><text fill="#000000" font-family="sans-serif" font-size="13" lengthAdjust="spacing" textLength="77.397" x="448.6732" y="507.065">0..* courses</text></g><!--link Platform to Person--><g class="link" data-entity-1="ent0005" data-entity-2="ent0002" data-link-type="dependency" data-source-line="39" id="lnk10"><path codeLine="39" d="M136.265,267.28 C117.285,290.72 100.685,316.49 89.665,343.86 C65.445,404 81.2906,474.6269 96.4606,520.2169" fill="none" id="Platform-to-Person" style="stroke:#181818;stroke-width:1;"/><polygon fill="#181818" points="98.355,525.91,99.3088,516.1074,96.7763,521.1658,91.718,518.6333,98.355,525.91" style="stroke:#181818;stroke-width:1;"/><text fill="#000000" font-family="sans-serif" font-size="13" lengthAdjust="spacing" textLength="57.1924" x="90.665" y="405.0269">registers</text><text fill="#000000" font-family="sans-serif" font-size="13" lengthAdjust="spacing" textLength="83.6367" x="6" y="515.0235">0..* students</text></g><?plantuml-src XLCzRuCm4Dtv5HOJf4dKh0nTebRjK2bIngY30mT1DNPbcqPLrV_Umr-Gu2YCzzwxU_Tyb8mgHNOWbU3aDo7uFP2zbYrl2ASTk8ebP1CWJ_wIf3JghUYbWcireqTWhjHoJRu5wqC_AvdsMnhIQQXFMZzpAHZh027V_erhQ42IZifFSdXShpSV3Xd9cLj8BRsvCdSa1VeTbTamRMYH5-YihJog-mhrhrGP4e978HXGFbhQCQfh8RjWo1SoFu9MbTil38yDKKDxQ_Imy3kKHc4WAnuX2EiPUDnsf4XeMgL1xks44CFbVDiebj45xTpgKoNf-IxHHphdsKUTnzpSL20F9LT1lGWv3_H6SiYDR3_BillIFzjOrlZEawDRhPv8kl56Kl-ZH2XsVEeNISAP61pFT35zm7HwsGKcn6a3AYPoQuN61H5rZIvYN9zNy5c4Yr3_?></g></svg>